<svg width="21" height="28" viewBox="0 0 21 28" fill="none" xmlns="http://www.w3.org/2000/svg">
<path fill-rule="evenodd" clip-rule="evenodd" d="M10.41 6.2915C6.1528 6.2915 2.70166 9.74264 2.70166 13.9998C2.70166 18.257 6.1528 21.7082 10.41 21.7082C14.6672 21.7082 18.1183 18.257 18.1183 13.9998C18.1183 9.74264 14.6672 6.2915 10.41 6.2915ZM1.45166 13.9998C1.45166 9.05229 5.46244 5.0415 10.41 5.0415C15.3575 5.0415 19.3683 9.05229 19.3683 13.9998C19.3683 18.9474 15.3575 22.9582 10.41 22.9582C5.46244 22.9582 1.45166 18.9474 1.45166 13.9998ZM10.41 10.0415C10.7552 10.0415 11.035 10.3213 11.035 10.6665V13.741L12.9353 15.6412C13.1793 15.8853 13.1793 16.281 12.9353 16.5251C12.6912 16.7692 12.2955 16.7692 12.0514 16.5251L9.96805 14.4418C9.85084 14.3246 9.78499 14.1656 9.78499 13.9998V10.6665C9.78499 10.3213 10.0648 10.0415 10.41 10.0415Z" fill="#315AE7"/>
</svg>
